PathFileType	4	(X/Y/Z)	./resultDataOpenSim/trcMotMarkerGrf/sub09/qtm-12-04.trc
DataRate	CameraRate	NumFrames	NumMarkers	Units	OrigDataRate	OrigDataStartFrame	OrigNumFrames
250.000000	250.000000	7	24	m	250.000000	241	481
Frame#	Time	L.Toe.Tip			R.Toe.Tip			L.Ankle.Lat			R.Ankle.Lat			L.Ankle.Med			R.Ankle.Med			L.Heel			R.Heel			L.Knee.Lat			R.Knee.Lat			L.Knee.Med			R.Knee.Med			L.Thigh.Upper			R.Thigh.Upper			L.ASIS			R.ASIS			V.Sacral			L.Acromium			R.Acromium			C7			L.Elbow			R.Elbow			L.Wrist.Lat			R.Wrist.Lat
		X1	Y1	Z1	X2	Y2	Z2	X3	Y3	Z3	X4	Y4	Z4	X5	Y5	Z5	X6	Y6	Z6	X7	Y7	Z7	X8	Y8	Z8	X9	Y9	Z9	X10	Y10	Z10	X11	Y11	Z11	X12	Y12	Z12	X13	Y13	Z13	X14	Y14	Z14	X15	Y15	Z15	X16	Y16	Z16	X17	Y17	Z17	X18	Y18	Z18	X19	Y19	Z19	X20	Y20	Z20	X21	Y21	Z21	X22	Y22	Z22	X23	Y23	Z23	X24	Y24	Z24

241	0.96	0.21299002	0.015617509	0.0040014013	0.55364349	0.12965243	0.098150074	0.066351907	0.053619651	-0.037289992	0.4082997	0.14689976	0.12404757	0.089000711	0.076528767	0.057368617	0.42548243	0.17917762	0.030249238	-0.0072697144	0.025802677	0.01059422	0.34365362	0.11870009	0.072243573	0.19111634	0.44883136	-0.10832159	0.50935587	0.58698768	0.15169818	0.19171897	0.45630232	0.017223844	0.50700046	0.57216342	0.025871013	0.21488006	0.87221557	-0.1787515	0.24186963	0.89107502	0.19292482	0.30582117	0.95757402	-0.12337422	0.31426678	0.97097899	0.11509302	0.14431632	1.0219949	-0.0027720768	0.3366512	1.4100137	-0.15646524	0.30404708	1.422855	0.17260195	0.25393687	1.4700165	0.0027930415	0.19506293	1.0636399	-0.2307311	0.1282348	1.1087453	0.25226868	0.39533022	0.88077314	-0.22073973	0.21859485	0.85153308	0.28414145
242	0.964	0.21302741	0.015624921	0.0040295854	0.57370041	0.12927841	0.096582524	0.066358315	0.053927566	-0.03694066	0.42795812	0.14266398	0.12246884	0.089255343	0.076742995	0.057631526	0.44421	0.17572271	0.028841326	-0.0071988408	0.026260697	0.011059813	0.36285324	0.11349568	0.07069749	0.19204899	0.44888309	-0.10821421	0.51621782	0.58656848	0.15108756	0.19271968	0.45650135	0.017341096	0.51342743	0.57137481	0.025698577	0.22030317	0.87199766	-0.17846943	0.24862408	0.89036313	0.19292625	0.31166587	0.95705574	-0.12369939	0.32087906	0.97026452	0.11484409	0.15076626	1.0213669	-0.0024060973	0.34269495	1.4094336	-0.15666256	0.31066831	1.4222412	0.17246199	0.26014696	1.4694202	0.0028254928	0.20149698	1.0626564	-0.23081155	0.13465459	1.1084207	0.25214581	0.4031753	0.88130947	-0.22025542	0.22403857	0.85086251	0.28423096
243	0.968	0.21304201	0.015609334	0.0040423491	0.59366911	0.12901129	0.095066978	0.066356455	0.054226901	-0.036601109	0.44751078	0.13863653	0.12082552	0.089524566	0.076971634	0.057907144	0.46297691	0.17240387	0.027367007	-0.0071310059	0.02673778	0.011534118	0.38414265	0.1080035	0.068268871	0.1928758	0.44896758	-0.10807755	0.52291276	0.58593813	0.15055579	0.193946	0.45665681	0.017354454	0.51976409	0.57036064	0.02556365	0.22566156	0.87171413	-0.17823128	0.25538811	0.88956763	0.19293142	0.31755259	0.95648872	-0.12401843	0.3275276	0.96946966	0.11460669	0.15712023	1.0206548	-0.0020019437	0.34874178	1.4088068	-0.15685853	0.31730415	1.4215795	0.17232432	0.26635319	1.4687779	0.0028337672	0.20794288	1.0616279	-0.23087792	0.141122	1.1080401	0.2520566	0.41098076	0.88177781	-0.21977866	0.22948795	0.8501386	0.28430361
244	0.972	0.21303653	0.015579949	0.0040245922	0.61357137	0.1288787	0.093606596	0.066348101	0.054532587	-0.036264027	0.46689121	0.13486696	0.11917195	0.089827544	0.077213568	0.058181517	0.48176259	0.1692579	0.025833635	-0.0070691205	0.027246595	0.012013807	0.40630738	0.10268772	0.065191302	0.19363991	0.44908654	-0.10794538	0.5294272	0.58503974	0.15018397	0.19544788	0.45680206	0.017251759	0.52610418	0.56911577	0.025416263	0.23096114	0.87136867	-0.1780501	0.26215453	0.88869095	0.19294484	0.3234835	0.95587274	-0.12433027	0.33422493	0.96860247	0.11438549	0.16343412	1.0198531	-0.0015572373	0.35479218	1.4081341	-0.15704728	0.3239522	1.4208728	0.17219598	0.27258881	1.468071	0.0027589253	0.21438834	1.0605582	-0.23092942	0.14763665	1.1076087	0.25199722	0.41875331	0.88217815	-0.21930698	0.23497075	0.84937356	0.28436135
245	0.976	0.21301217	0.015545386	0.0039680029	0.63339501	0.12890772	0.092228181	0.066325424	0.054864313	-0.035911634	0.48604047	0.13142056	0.11755064	0.09016967	0.077473404	0.058440834	0.50055513	0.16630329	0.024241408	-0.0070153752	0.027785393	0.012502423	0.42738455	0.098213038	0.06238233	0.19437962	0.44923778	-0.10785642	0.53581955	0.58386979	0.14997951	0.19702708	0.45698959	0.017083212	0.53245461	0.56764012	0.025253338	0.23622909	0.87096657	-0.17791525	0.26891841	0.8877358	0.19296786	0.32945762	0.95520821	-0.12463577	0.34097207	0.96766805	0.11417901	0.16976999	1.0189655	-0.0010864881	0.36083909	1.4074155	-0.15722795	0.33059965	1.4201239	0.1720789	0.27886389	1.4672943	0.002588591	0.2208403	1.0594557	-0.23097091	0.15418888	1.1071061	0.25197105	0.42649697	0.88251091	-0.21884069	0.24050788	0.84857155	0.28439977
246	0.98	0.21297414	0.01551002	0.003878615	0.65307993	0.12911266	0.090950035	0.066283647	0.055233855	-0.035543507	0.50491112	0.12832845	0.11596253	0.090541451	0.077760954	0.058684583	0.51931894	0.16355006	0.022597612	-0.0069684363	0.028350369	0.013007274	0.44668688	0.094478578	0.060628622	0.19511349	0.44942245	-0.10782091	0.54214625	0.5825034	0.14986115	0.19852214	0.45721389	0.016907163	0.53876228	0.56594006	0.025107854	0.24149568	0.87051111	-0.17780937	0.27568448	0.88670361	0.19300065	0.3354684	0.95449054	-0.1249387	0.34776324	0.9666657	0.11398033	0.17614504	1.0180098	-0.00061910113	0.36687766	1.4066514	-0.15740473	0.3372331	1.4193339	0.17196752	0.28515338	1.4664585	0.0023853372	0.22730571	1.0583191	-0.23100484	0.16076905	1.1065116	0.25198239	0.4342105	0.8827767	-0.21838394	0.24611318	0.8477314	0.28441206
247	0.984	0.21293505	0.015476191	0.0037781004	0.67257059	0.12946697	0.089724506	0.06622904	0.05563913	-0.035177782	0.52364181	0.12547979	0.11432893	0.090925446	0.078083673	0.058917705	0.53799476	0.16100311	0.020919656	-0.0069215041	0.028949335	0.013536839	0.46485615	0.090943201	0.059935304	0.19586088	0.44964534	-0.10783584	0.54837373	0.5810015	0.14971565	0.19993026	0.45744088	0.016747708	0.54498455	0.56402447	0.025010161	0.24678559	0.87000917	-0.17772347	0.28246099	0.8855906	0.19304397	0.34150417	0.95371433	-0.12524431	0.3545968	0.96559458	0.11377929	0.18255127	1.0170066	-0.00017692459	0.37291202	1.4058446	-0.15758235	0.34384898	1.4185023	0.17185153	0.29141438	1.4655808	0.0022508766	0.23378026	1.05714	-0.23103097	0.16736071	1.1058341	0.25201889	0.44189382	0.88297585	-0.21794127	0.25179075	0.84685082	0.28439538
